# Blender v2.74 (sub 0) OBJ File: ''
# www.blender.org
mtllib wall.mtl
o Cube
v 10.000000 -0.500000 -10.000000
v 10.000000 -0.500000 10.000000
v -10.000001 -0.500000 9.999998
v -9.999996 -0.500000 -10.000004
v 10.000004 0.500000 -9.999996
v 9.999994 0.500000 10.000006
v -10.000004 0.500000 9.999996
v -9.999999 0.500000 -10.000000
v 10.000000 -0.500000 0.000000
v 0.000002 -0.500000 -10.000002
v 0.000000 -0.500000 9.999999
v -9.999998 -0.500000 -0.000003
v 9.999999 0.500000 0.000005
v 0.000002 0.500000 -9.999998
v -0.000005 0.500000 10.000001
v -10.000002 0.500000 -0.000002
v -0.000001 0.500000 0.000002
v 0.000001 -0.500000 -0.000001
v 10.000000 -0.500000 5.000000
v -4.999997 -0.500000 -10.000003
v -5.000000 -0.500000 9.999998
v -9.999997 -0.500000 -5.000003
v 9.999996 0.500000 5.000005
v -4.999999 0.500000 -9.999999
v -5.000004 0.500000 9.999998
v -10.000000 0.500000 -5.000001
v 10.000000 -0.500000 -5.000000
v 5.000001 -0.500000 -10.000001
v 5.000000 -0.500000 10.000000
v -10.000000 -0.500000 4.999998
v 10.000002 0.500000 -4.999996
v 5.000003 0.500000 -9.999997
v 4.999995 0.500000 10.000004
v -10.000003 0.500000 4.999997
v -0.000003 0.500000 5.000001
v 0.000000 0.500000 -4.999998
v 4.999999 0.500000 0.000003
v -5.000002 0.500000 0.000000
v -4.999999 -0.500000 -0.000002
v 5.000000 -0.500000 -0.000001
v 0.000001 -0.500000 -5.000001
v 0.000000 -0.500000 4.999999
v 5.000000 -0.500000 5.000000
v 5.000001 -0.500000 -5.000001
v -4.999998 -0.500000 -5.000002
v -5.000000 0.500000 -5.000000
v 5.000001 0.500000 -4.999997
v 4.999997 0.500000 5.000003
v -5.000003 0.500000 4.999999
v -5.000000 -0.500000 4.999998
vt 0.250000 0.250000
vt 0.250000 0.000000
vt 0.000000 0.000000
vt 0.000000 0.250000
vt 0.250000 1.000000
vt 0.000000 1.000000
vt 0.750000 0.000000
vt 0.750000 1.000000
vt 1.000000 1.000000
vt 1.000000 0.000000
vt 0.500000 0.000000
vt 0.500000 0.999997
vt 0.750000 0.250000
vt 0.500000 0.250000
vt 0.750000 0.750000
vt 0.500000 0.750000
vt 0.500000 0.500000
vt 0.750000 0.500000
vt 0.250000 0.750000
vt 0.000000 0.750000
vt 0.000000 0.500000
vt 0.250000 0.500000
vt 1.000000 0.500000
vt 1.000000 0.250000
vt 1.000000 0.750000
vn 0.000000 -1.000000 0.000000
vn 0.000000 1.000000 0.000000
vn 1.000000 0.000000 0.000000
vn -0.000000 0.000000 1.000000
vn -1.000000 -0.000000 -0.000000
vn 0.000000 0.000000 -1.000000
usemtl Material
s off
f 50/1/1 21/2/1 3/3/1 30/4/1
f 49/1/2 34/4/2 7/3/2 25/2/2
f 19/2/3 23/5/3 6/6/3 2/3/3
f 21/2/4 25/5/4 7/6/4 3/3/4
f 22/7/5 26/8/5 8/9/5 4/10/5
f 24/5/6 20/2/6 4/3/6 8/6/6
f 32/8/6 28/7/6 10/11/6 14/12/6
f 30/2/5 34/5/5 16/12/5 12/11/5
f 29/7/4 33/8/4 15/12/4 11/11/4
f 27/7/3 31/8/3 13/12/3 9/11/3
f 48/13/2 35/14/2 15/11/2 33/7/2
f 47/15/2 36/16/2 17/17/2 37/18/2
f 46/19/2 26/20/2 16/21/2 38/22/2
f 45/19/1 39/22/1 12/21/1 22/20/1
f 44/15/1 40/18/1 18/17/1 41/16/1
f 43/13/1 29/7/1 11/11/1 42/14/1
f 40/18/1 43/13/1 42/14/1 18/17/1
f 9/23/1 19/24/1 43/13/1 40/18/1
f 19/24/1 2/10/1 29/7/1 43/13/1
f 28/8/1 44/15/1 41/16/1 10/12/1
f 1/9/1 27/25/1 44/15/1 28/8/1
f 27/25/1 9/23/1 40/18/1 44/15/1
f 20/5/1 45/19/1 22/20/1 4/6/1
f 10/12/1 41/16/1 45/19/1 20/5/1
f 41/16/1 18/17/1 39/22/1 45/19/1
f 36/16/2 46/19/2 38/22/2 17/17/2
f 14/12/2 24/5/2 46/19/2 36/16/2
f 24/5/2 8/6/2 26/20/2 46/19/2
f 31/25/2 47/15/2 37/18/2 13/23/2
f 5/9/2 32/8/2 47/15/2 31/25/2
f 32/8/2 14/12/2 36/16/2 47/15/2
f 23/24/2 48/13/2 33/7/2 6/10/2
f 13/23/2 37/18/2 48/13/2 23/24/2
f 37/18/2 17/17/2 35/14/2 48/13/2
f 1/10/3 5/9/3 31/8/3 27/7/3
f 2/10/4 6/9/4 33/8/4 29/7/4
f 3/3/5 7/6/5 34/5/5 30/2/5
f 5/9/6 1/10/6 28/7/6 32/8/6
f 14/12/6 10/11/6 20/2/6 24/5/6
f 12/11/5 16/12/5 26/8/5 22/7/5
f 11/11/4 15/12/4 25/5/4 21/2/4
f 9/11/3 13/12/3 23/5/3 19/2/3
f 35/14/2 49/1/2 25/2/2 15/11/2
f 17/17/2 38/22/2 49/1/2 35/14/2
f 38/22/2 16/21/2 34/4/2 49/1/2
f 39/22/1 50/1/1 30/4/1 12/21/1
f 18/17/1 42/14/1 50/1/1 39/22/1
f 42/14/1 11/11/1 21/2/1 50/1/1
